<?xml version="1.0" encoding="UTF-8"?>
<!DOCTYPE svg PUBLIC "-//W3C//DTD SVG 1.1//EN" "http://www.w3.org/Graphics/SVG/1.1/DTD/svg11.dtd">
<!-- Creator: CorelDRAW -->
<svg xmlns="http://www.w3.org/2000/svg" xml:space="preserve" width="8.31167in" height="3.95276in" version="1.1" style="shape-rendering:geometricPrecision; text-rendering:geometricPrecision; image-rendering:optimizeQuality; fill-rule:evenodd; clip-rule:evenodd"
viewBox="0 0 1536.64 730.77"
 xmlns:xlink="http://www.w3.org/1999/xlink"
 xmlns:xodm="http://www.corel.com/coreldraw/odm/2003">
 <defs>
  <style type="text/css">
   <![CDATA[
    .fil0 {fill:#4A94C4;fill-rule:nonzero}
    .fil1 {fill:#FFD400;fill-rule:nonzero}
   ]]>
  </style>
 </defs>
 <g id="Layer_x0020_1">
  <metadata id="CorelCorpID_0Corel-Layer"/>
  <g id="_105553180830688">
   <g>
    <g>
     <path class="fil0" d="M652.32 336.75l223.22 0c14.04,0 25.5,-13.6 25.57,-30.25 0.08,-16.79 -11.3,-30.33 -25.42,-30.33l-1.06 0c-2.08,-5.78 -4.24,-11.73 -6.43,-17.87 -6.12,-16.99 -10.46,-33.01 -12.86,-47.68 -1.75,-10.78 -2.56,-21.09 -2.35,-30.58 0.25,-11.98 2.1,-23.03 5.47,-32.87 5.45,-15.77 13.98,-26.38 22.05,-33.36 6.76,-4.33 11.94,-5.89 12.54,-6.07 0.02,-0.02 0.06,-0.02 0.06,-0.02 2.5,-2 5.49,-3.35 9.13,-3.77 0.21,-0.06 0.42,-0.08 0.71,-0.08 1.04,-0.13 2.18,-0.13 3.37,-0.08 9.55,0.46 18.97,1.68 28.35,3.08 4.37,0.67 8.67,1.69 13.02,2.43 2.41,0.42 4.83,0.62 7.24,0.94 2,0.27 3.22,1.27 3.81,2.89 1.23,3.24 1.35,6.47 0.46,9.76 -1.46,5.37 -4.45,10.09 -7.74,14.73 -1.06,1.56 -2.25,3.08 -3.41,4.64 0.06,0.06 0.1,0.13 0.15,0.21 0.4,-0.15 0.87,-0.25 1.21,-0.42 3.52,-1.77 7.11,-3.39 10.48,-5.37 14.08,-8.32 22.22,-19.8 24.79,-34.2 0.89,-5.01 0.83,-10.07 0.25,-15.14 -0.31,-2.66 -0.83,-5.33 -1.6,-7.95 -1.56,-5.32 -4.24,-10.25 -7.84,-14.81 -4.7,-5.97 -10.4,-11.19 -17.37,-15.27 -3.08,-1.85 -6.43,-3.47 -9.88,-4.78 -5.05,-1.93 -10.13,-3.81 -15.41,-5.12 -8.53,-2.04 -17.22,-3.6 -25.86,-5.32 -1.46,-0.31 -2.73,-0.83 -3.87,-1.71 -2.02,-1.54 -4.1,-3.06 -6.18,-4.56 -10.4,-7.55 -22.4,-12.61 -35.24,-16.33 -11.77,-3.47 -23.9,-5.89 -36.2,-7.8 -12.73,-1.98 -25.52,-3.37 -38.48,-3.62 -10.55,-0.23 -21.11,0.25 -31.64,1.12 -2.98,0.23 -6.01,0.56 -8.99,0.87 -1.44,0.15 -1.69,0.58 -0.75,1.54 1.04,1.12 2.16,2.18 3.31,3.27 0.89,0.81 1.85,1.56 2.75,2.39 0.66,0.64 0.58,1.14 -0.42,1.43 -1.58,0.42 -3.12,0.98 -4.72,1.29 -14.73,2.98 -28.98,7.14 -42.75,12.56 -4.16,1.64 -8.15,3.54 -12.21,5.33 -0.35,0.15 -0.64,0.42 -1.19,0.89 3.93,0.79 7.55,1.46 11.11,2.27 3.56,0.79 7.09,1.64 10.55,3.24 -0.62,0.4 -0.98,0.67 -1.37,0.91 -1.54,0.91 -3.08,1.77 -4.6,2.72 -12.23,7.8 -21.92,17.52 -29.54,28.73 -4.85,7.11 -8.32,14.79 -11.86,22.45 -0.08,0.13 -0.06,0.27 -0.1,0.79 11.25,-7.78 23.61,-13.21 36.63,-17.95 -0.27,0.39 -0.46,0.79 -0.73,1.1 -4.83,5.41 -9.01,11.17 -11.59,17.66 -1.43,3.62 -3.22,7.14 -4.35,10.84 -0.4,1.44 -0.73,2.89 -0.91,4.43 -0.08,0.87 -0.27,2.23 -0.5,3.06 -1.14,4.53 -1.94,9.09 -2.1,13.64l0 0.31c-0.08,2.72 -0.06,5.41 -0.02,8.15l-18.45 110.87c-1.81,10.84 -4.04,21.59 -6.7,32.24l-3.62 -0c-14.12,0 -25.5,13.54 -25.42,30.33 0,16.66 11.52,30.25 25.57,30.25l-0.06 -0.02zm257.5 -265.01c-0.21,0.13 -0.42,0.23 -0.64,0.33 0.35,-0.17 0.67,-0.39 1.02,-0.58 -0.13,0.08 -0.25,0.17 -0.39,0.25zm10.55 -10.44c0,0 -0.06,0.15 -0.08,0.25 -0.02,0.06 -0.06,0.1 -0.08,0.15 0.06,-0.13 0.1,-0.27 0.15,-0.4zm-0.89 1.85c-0.06,0.1 -0.08,0.17 -0.13,0.25 -0.1,0.13 -0.17,0.25 -0.27,0.39 -0.1,0.17 -0.23,0.33 -0.35,0.48 0.27,-0.39 0.54,-0.73 0.75,-1.12l-0 0zm-2.18 2.73c-0.1,0.1 -0.17,0.21 -0.27,0.31 -0.27,0.27 -0.58,0.56 -0.89,0.83 0.4,-0.39 0.79,-0.75 1.16,-1.14l-0 0zm-8.99 -23.4c1.19,0.25 2.41,0.48 3.6,0.71 -1.19,-0.23 -2.41,-0.46 -3.6,-0.67 -0.15,-0.02 -0.33,-0.02 -0.54,-0.02 0.21,-0.02 0.39,-0.02 0.54,0l0 -0.02zm-1.98 0.5c0.21,-0.15 0.48,-0.27 0.75,-0.35 -0.27,0.1 -0.56,0.23 -0.75,0.39 -0.08,0.06 -0.15,0.13 -0.23,0.17 0.08,-0.08 0.13,-0.15 0.23,-0.21zm-30 35.69c-1.39,0.15 -2.73,0.33 -4.08,0.5 1.35,-0.21 2.68,-0.39 4.08,-0.54 0.13,-0.02 0.25,-0.02 0.35,-0.06 -0.1,0.06 -0.23,0.08 -0.35,0.08l0 0.02zm10.84 -21.92c0.1,-0.15 0.21,-0.35 0.31,-0.5 0.39,-0.56 0.83,-0.56 1.44,-0.19 0.08,0.06 0.17,0.1 0.25,0.15 -0.67,0.23 -1.31,0.42 -2,0.56l0 -0.02zm-192.89 80.34l0 0c0,0 0,-0.08 0.02,-0.1 0.02,-0.17 0.08,-0.33 0.15,-0.5 0.08,-0.25 0.21,-0.54 0.35,-0.75 0.73,-1.19 1.46,-2.41 2.2,-3.62l0.13 -0.23 4.16 -6.63 0.94 -1.5 0.4 -0.62 0.62 -0.96c0.39,-0.58 0.73,-1.19 1.14,-1.77 0.4,-0.66 0.83,-1.31 1.27,-1.94 0.13,-0.21 0.25,-0.4 0.35,-0.62 0.4,-0.62 0.79,-1.23 1.14,-1.91l0.25 -0.39 0.15 -0.31c0.94,-1.71 1.83,-3.52 2.48,-5.39 2.41,-6.59 5.74,-12.83 9.49,-18.93 0.21,-0.35 0.35,-0.71 0.33,-1.21 -0.31,0.25 -0.67,0.48 -0.94,0.75 -1.12,1.37 -2.35,2.66 -3.22,4.12 -2.79,4.49 -6.37,8.44 -10,12.4 -2.83,3.12 -5.64,6.2 -8.51,9.28 -0.27,0.35 -0.66,0.62 -0.96,0.91 -0.13,-0.02 -0.23,-0.06 -0.35,-0.08 0,-0.67 -0.02,-1.35 0,-2 0.1,-4.28 1.44,-8.36 2.91,-12.34 3.87,-10.46 9.96,-20.03 17.85,-28.67 3.79,-4.16 7.82,-8.26 12.9,-11.34 6.37,-3.85 12.96,-7.43 19.47,-11.17 1.21,-0.71 2.48,-1.35 3.7,-2.12 -2.18,0.35 -4.41,0.73 -6.55,1.12 -1.79,0.31 -3.6,0.62 -5.39,0.94 -8.99,1.69 -17.87,3.7 -26.5,6.35 -0.94,0.27 -1.91,0.62 -2.83,0.91 -0.96,0.31 -1.91,0.64 -2.87,0.96 -0.91,0.33 -1.87,0.67 -2.81,1.02 -4.85,1.83 -9.61,3.87 -14.27,6.28 0.02,-0.02 0.08,-0.06 0.1,-0.1 0.1,-0.17 0.21,-0.39 0.33,-0.56 0.13,-0.25 0.31,-0.48 0.48,-0.66 0.89,-0.96 1.83,-1.93 2.79,-2.89 0.31,-0.27 0.58,-0.56 0.89,-0.81 0.21,-0.23 0.4,-0.42 0.66,-0.67l0.67 -0.66c0.42,-0.42 0.91,-0.91 1.43,-1.37l0.15 -0.15c0.21,-0.17 0.4,-0.35 0.62,-0.56 0.4,-0.35 0.83,-0.73 1.23,-1.12 0.06,-0.06 0.1,-0.1 0.17,-0.15 0.08,-0.1 0.17,-0.17 0.25,-0.25 0,0.02 -0.02,0.06 -0.06,0.1 0.17,-0.17 0.35,-0.35 0.58,-0.5 0.17,-0.17 0.35,-0.35 0.56,-0.5 0.21,-0.17 0.39,-0.33 0.62,-0.5 0.25,-0.23 0.54,-0.46 0.81,-0.66 0.06,-0.02 0.13,-0.1 0.17,-0.15 0.35,-0.33 0.71,-0.62 1.12,-0.89 0.64,-0.5 1.27,-1.04 1.94,-1.52 0.17,-0.15 0.39,-0.31 0.58,-0.42 0.62,-0.48 1.27,-0.94 1.93,-1.37 1.16,-0.83 2.39,-1.64 3.64,-2.43 0.35,-0.23 0.71,-0.42 1.06,-0.64 1.27,-0.79 2.58,-1.5 3.93,-2.18 0.62,-0.33 1.19,-0.62 1.83,-0.91 0.25,-0.15 0.48,-0.25 0.73,-0.35 0.75,-0.35 1.52,-0.73 2.27,-1.06 2.02,-0.89 4.03,-1.93 5.97,-3 0.35,-0.21 0.73,-0.39 1.1,-0.58 0.13,-0.06 0.21,-0.1 0.31,-0.15 0.1,-0.06 0.21,-0.1 0.33,-0.13 0.35,-0.21 0.73,-0.39 1.1,-0.56 0.23,-0.1 0.48,-0.23 0.71,-0.31 0.73,-0.33 1.5,-0.64 2.23,-0.91 1.6,-0.64 3.22,-1.19 4.83,-1.69 0.31,-0.1 0.56,-0.21 0.81,-0.27 0,0 0.02,-0 0.06,-0.02 0.04,-0.01 0.06,0 0.08,-0.02 0.13,-0.02 0.23,-0.08 0.31,-0.1 0.13,-0.02 0.21,-0.06 0.27,-0.08l0.02 -0c0,0 0.08,-0.06 0.13,-0.08l0.08 0c0,0 0.02,-0.02 0.06,-0.06 0.06,0 0.08,-0.02 0.1,-0.02 0.1,-0.02 0.17,-0.06 0.23,-0.08 0.02,0 0.06,0 0.06,-0.02l0.02 -0c0,0 0.08,-0.02 0.08,-0.02 0.08,-0.02 0.15,-0.13 0.4,-0.4 -0.56,-0.21 -1.02,-0.48 -1.52,-0.58 -6.05,-1.37 -12.13,-2.72 -18.2,-4.04 -0.42,-0.1 -0.89,-0.23 -1.54,-0.39 0.39,-0.27 0.56,-0.48 0.75,-0.62 4.6,-1.91 9.15,-4.01 13.85,-5.6 3.89,-1.31 8.05,-2.1 12.13,-2.97 5.33,-1.06 10.73,-1.94 16.1,-2.93 1.54,-0.27 1.52,-0.33 0.81,-1.54 -1.12,-1.94 -2.12,-3.95 -3.22,-5.93 -0.42,-0.81 -0.08,-1.19 0.91,-1.27 2.25,-0.15 4.51,-0.39 6.78,-0.48 1.29,-0.06 2.58,-0.1 3.87,-0.15 0.79,-0.02 1.62,-0.06 2.41,-0.06 0.15,0 0.35,0 0.54,-0.02l0.13 -0c8.94,-0.15 17.87,0.23 26.81,0.94 6.53,0.54 13.04,1.14 19.55,1.87 7.95,0.94 15.75,2.5 23.34,4.66 5.82,1.64 11.67,3.2 17.39,5.05 0.02,0 0.06,0 0.06,0.02 0.21,0.06 0.39,0.13 0.62,0.17 0.73,0.27 1.44,0.54 2.16,0.75 0.62,0.23 1.21,0.46 1.79,0.66 0.89,0.33 1.75,0.67 2.56,1.02 0.58,0.23 1.16,0.46 1.71,0.67 3.14,1.35 6.2,2.83 9.17,4.43 0.1,0.06 0.23,0.1 0.31,0.15 0.15,0.08 0.33,0.17 0.48,0.25 0.1,0.06 0.21,0.1 0.27,0.17 0.02,0 0.06,0 0.08,0.02 0.87,0.48 1.75,0.96 2.6,1.46 0.71,0.42 1.39,0.87 2.04,1.35 0.56,0.39 1.1,0.81 1.6,1.27 0.02,0.02 0.08,0.06 0.1,0.08 0.06,0.02 0.1,0.08 0.13,0.1 0.33,0.27 0.64,0.56 0.96,0.91 0.25,0.23 0.5,0.46 0.73,0.71 0.58,0.62 1.14,1.27 1.68,1.91 0.31,0.4 0.56,0.81 0.73,1.21 0.08,0.13 0.1,0.25 0.13,0.39l0 0.1c0,0 0.02,0.08 0.02,0.13l0.02 0c0,0 0.02,0.1 0,0.13l0 0.21c0.06,0.21 0.02,0.42 0,0.64l0 0.13c0.02,0.1 0,0.17 -0.06,0.27l0 0c-0.02,0.13 -0.06,0.25 -0.1,0.35 -0.02,0.1 -0.06,0.23 -0.1,0.33 -0.02,0.08 -0.06,0.15 -0.13,0.23 -0.06,0.13 -0.13,0.25 -0.19,0.39 -0.06,0.1 -0.1,0.15 -0.15,0.23 -0.08,0.1 -0.15,0.19 -0.21,0.31 -0.13,0.1 -0.23,0.21 -0.31,0.31 -0.23,0.31 -0.46,0.58 -0.71,0.87 0.06,-0.06 0.1,-0.1 0.17,-0.15 -0.13,0.1 -0.23,0.21 -0.33,0.33 -0.33,0.35 -0.71,0.73 -1.12,1.06 -0.66,0.56 -1.39,1.02 -2.2,1.44 -1.52,0.79 -3.12,0.5 -4.64,0 -3.41,-1.21 -6.82,-2.52 -10.21,-3.81 -6.03,-2.25 -11.98,-4.58 -18.01,-6.76 -2.04,-0.71 -4.28,-1.1 -6.43,-1.56 -0.25,-0.08 -0.58,-0.13 -0.83,-0.08 -0.4,0.1 -0.73,0.27 -1.12,0.42 0.31,0.23 0.56,0.5 0.91,0.64 2.64,0.81 5.32,1.52 7.9,2.43 3.97,1.43 6.43,4.28 8.84,7.16 0.58,0.71 0.31,1.23 -0.79,1.23 -1.91,0 -3.81,-0.02 -5.64,-0.35 -7.22,-1.31 -14.41,-2.87 -21.65,-4.08 -7.43,-1.27 -14.91,-2.56 -22.45,-3.29 -10.44,-1.02 -20.95,-1.54 -31.41,-2.31 -2.79,-0.17 -5.53,-0.42 -8.26,-0.64 -0.42,-0.06 -0.89,-0.08 -1.69,-0.13 0.5,0.56 0.71,0.98 1.12,1.23 2.27,1.54 4.53,3.2 6.95,4.51 4.08,2.25 8.3,4.29 12.48,6.43 7.11,3.6 13.54,7.9 19.59,12.63 5.82,4.53 12.75,7.01 20.28,8.55 4.28,0.89 8.53,1.31 12.83,0.08 4.24,-1.16 8.2,-2.79 11.19,-5.72 2.18,-2.1 3.06,-4.68 3.41,-7.41 0.02,-0.21 0.02,-0.42 0.02,-0.64 0.08,-1.16 0.64,-1.43 1.71,-0.67 2.25,1.44 4.43,3 6.59,4.58 0.71,0.54 1.37,1.1 2.02,1.64 0.13,-0.06 0.25,-0.08 0.39,-0.13 -0.06,-0.4 0.02,-0.83 -0.13,-1.19 -0.75,-1.77 -1.56,-3.49 -2.31,-5.24 -0.15,-0.35 -0.23,-0.94 -0.02,-1.14 0.23,-0.23 0.91,-0.23 1.35,-0.1 4.12,0.98 7.99,2.47 11.34,4.81 0.4,0.27 0.75,0.79 0.79,1.19 0.08,2.58 -0.33,5.32 -0.67,7.84 -0.13,0.83 -0.27,1.54 -0.46,2.2 -0.13,0.46 -0.23,0.87 -0.35,1.29 -0.15,0.62 -0.35,1.19 -0.54,1.87 -0.02,0.08 -0.06,0.21 -0.08,0.31 -0.15,0.4 -0.39,0.94 -0.58,1.5 -0.21,0.54 -0.42,1.06 -0.54,1.52 -0.27,0.98 -0.94,1.37 -2.04,1.5 -7.43,0.83 -14.91,1.64 -22.32,2.5 -4.78,0.54 -9.57,1.14 -14.35,1.69 -5.47,0.64 -10.94,1.31 -16.43,1.91 -9.88,1.06 -19.18,3.47 -27.83,7.72 -4.83,2.39 -9.69,4.68 -14.39,7.22 -5.64,3.12 -10.3,7.24 -14.81,11.42 -2.79,2.6 -5.53,5.26 -8.03,8.03 -2.72,3.04 -5.14,6.28 -7.65,9.44 -3.7,4.68 -6.82,9.61 -9.28,14.83 -0.27,0.64 -0.31,1.31 -0.46,1.98 0.1,0.02 0.17,0.06 0.27,0.08 0.73,-1.19 1.6,-2.33 2.12,-3.54 1.14,-2.41 3.12,-4.35 4.93,-6.41 4.04,-4.41 7.99,-8.94 12.38,-13.13 3.95,-3.76 8.22,-7.26 12.65,-10.63 0.91,-0.71 1.85,-1.37 2.75,-2.02 0,-0 0.02,-0.01 0.06,-0.02 0.48,-0.35 0.94,-0.67 1.39,-0.98 1.12,-0.79 2.25,-1.52 3.39,-2.23 1.12,-0.73 2.23,-1.39 3.37,-2.08 1.27,-0.73 2.56,-1.5 3.85,-2.18 0.96,-0.54 1.93,-1.06 2.91,-1.54 0.64,-0.33 1.27,-0.64 1.91,-0.96 3.54,-1.79 7.22,-3.45 10.94,-5.01 0.08,-0.06 0.17,-0.08 0.31,-0.1 0.02,-0.02 0.08,-0.06 0.1,-0.06 0.02,-0.02 0.06,-0.02 0.08,-0.06 0.58,-0.23 1.16,-0.48 1.75,-0.71 6.01,-2.48 12.21,-4.24 18.82,-4.91 0.31,-0.06 0.58,-0.1 0.89,-0.1 0.75,0.02 1.79,-0.35 2.12,0.56 0.33,0.91 0.02,1.77 -0.98,2.31 -1.77,0.94 -3.6,1.87 -5.37,2.81 -1.04,0.56 -2,1.19 -2.98,1.79 0.06,0.13 0.13,0.25 0.17,0.39 0.62,-0.08 1.23,-0.1 1.77,-0.27 4.2,-1.19 8.43,-2.31 12.54,-3.7 3.89,-1.31 7.63,-2.98 11.5,-4.37 0.83,-0.27 1.68,-0.54 2.52,-0.79l4.6 2.16c-0.54,0.08 -1.1,0.13 -1.62,0.21 -1.12,0.15 -2.12,0.27 -2.98,0.42 -0.56,0.08 -1.04,0.31 -0.64,0.81 0.58,0.71 0.17,1.08 -0.4,1.5 -0.5,0.39 -0.98,0.81 -1.62,1.37 0.46,0.06 0.62,0.1 0.73,0.08 2.58,-0.62 5.22,-1.02 7.82,-1.37 0.67,-0.1 1.39,-0.17 2.08,-0.23l-4.58 13.21c-4.91,1.19 -9.76,2.48 -14.48,4.18 -5.72,2.02 -11.34,4.2 -16.85,6.61 -2.64,1.12 -4.99,2.73 -7.26,4.35 -3.68,2.6 -7.34,5.24 -10.65,8.13 -2.91,2.52 -5.64,5.3 -7.88,8.22 -2.83,3.79 -5.16,7.82 -7.51,11.84 -0.94,1.58 -1.43,3.31 -2.12,4.99 0.15,0.08 0.31,0.15 0.42,0.23 0.42,-0.48 0.91,-0.96 1.27,-1.46 1.46,-2.2 2.81,-4.45 4.29,-6.63 4.01,-5.93 9.24,-10.98 15.68,-15 7.41,-4.66 15.31,-8.74 23.59,-12.15 5.58,-2.33 11.36,-4.35 17.06,-6.53 1.04,-0.39 2.1,-0.81 3.2,-1.08 1.27,-0.33 2.58,-0.46 3.87,-0.66 0.06,0.13 0.1,0.27 0.15,0.4 -1.5,0.67 -3.04,1.31 -4.53,2 -7.57,3.47 -14.98,7.07 -20.88,12.56 -4.04,3.76 -7.38,7.84 -9.88,12.42 -1.85,3.37 -3.49,6.78 -5.07,10.25 -1.14,2.6 -2.02,5.3 -2.98,7.91 -0.21,0.5 -0.25,0.98 -0.35,1.5 0.17,0.06 0.35,0.13 0.5,0.17 0.35,-0.35 0.83,-0.69 1.14,-1.12 2,-2.98 3.89,-6.03 6.01,-8.95 3.54,-4.93 7.78,-9.4 12.71,-13.38 7.38,-5.95 15.7,-10.71 24.57,-14.81 1.21,-0.58 2.48,-1.12 3.79,-1.52 0.81,-0.25 1.75,-0.25 2.64,-0.39 0.71,-0.1 1.39,-0.17 2.48,-0.27 -18.2,9.55 -27.48,23.51 -29.79,41.06 -0.48,3.6 -0.06,7.22 0.66,10.78 0.15,0.02 0.33,0.06 0.5,0.08 0.21,-0.46 0.5,-0.91 0.67,-1.43 1.5,-4.18 2.5,-8.51 4.7,-12.5 2.12,-3.85 4.83,-7.34 7.7,-10.78 0.91,-1.14 1.79,-2.23 2.89,-3.35 0.02,4.29 0.08,8.55 1.14,12.73 -3,8.74 -4.99,19.14 -5.24,31.49 -13.6,0.13 -27.02,1.54 -40.25,4.2 -6.35,1.29 -12.69,2.87 -18.85,4.74 -4.66,1.44 -9.09,3.49 -13.52,5.45 -2.45,1.1 -4.89,2.23 -7.32,3.39l-0.02 -0c0,0 -0.1,0.08 -0.1,0.08 -0.06,0.02 -0.1,0.06 -0.15,0.08l-0.02 0c-1.71,0.83 -3.41,1.68 -5.08,2.56 -2.04,1.1 -3.87,2.48 -5.8,3.76 -0.31,0.17 -0.56,0.39 -1.04,0.73 -0.1,-0.46 -0.23,-0.73 -0.23,-1.02l0 -4.51c0,-1.79 0,-3.56 0.02,-5.37 0,-0.91 0.02,-1.79 0.06,-2.72 0.02,-0.31 0.02,-0.62 0.02,-0.91 0.1,-4.16 0.33,-8.32 0.89,-12.48 1.02,-7.47 2.41,-14.87 4.78,-22.07 0.33,-1.02 0.71,-2.04 1.06,-3.06 2.12,-5.72 4.51,-11.32 6.91,-16.93 0.06,-0.13 0.13,-0.23 0.17,-0.33 0.08,-0.17 0.15,-0.35 0.23,-0.54 2.35,-5.39 5.47,-10.44 8.95,-15.29 0.54,-0.73 1.02,-1.39 1.37,-1.91 0.35,-0.46 0.71,-0.94 1.06,-1.39 0,-0.02 0.02,-0.02 0.06,-0.06 0,0 0.01,-0.02 0.02,-0.06 0.01,-0.04 0.06,-0.08 0.06,-0.08 1.69,-2.18 3.45,-4.35 5.22,-6.49 3.14,-3.79 7.01,-7.18 10.55,-10.73 1.93,-1.93 3.93,-3.77 5.85,-5.7 0.48,-0.42 0.73,-1.06 1.06,-1.56 -0.08,-0.08 -0.17,-0.17 -0.25,-0.25 -0.62,0.23 -1.27,0.4 -1.85,0.67 -0.91,0.42 -1.79,0.89 -2.66,1.31 -1.77,0.89 -3.52,1.77 -5.18,2.81 -0.71,0.4 -1.39,0.83 -2.04,1.31l-0.02 0c-0.54,0.35 -1.06,0.73 -1.54,1.12 -4.29,3.29 -8.7,6.55 -12.88,10 -3.06,2.56 -5.89,5.3 -8.69,8.05 -3.54,3.54 -7.03,7.09 -10.32,10.78 -6.55,7.38 -12.02,15.23 -15.37,24.13 -0.15,0.46 -0.35,0.91 -0.5,1.37 0,0.02 -0.02,0.02 -0.02,0.06 -1.35,3.54 -2.66,7.09 -3.77,10.69 -0.02,0.02 -0.02,0.08 -0.02,0.1 -0.27,0.94 -0.58,1.87 -0.83,2.81 -0.21,0.62 -0.35,1.19 -0.5,1.75 -0.02,0.08 -0.06,0.15 -0.06,0.23 -0.31,1.02 -0.56,2.04 -0.75,3.08 -2.31,10.05 -2.41,20.07 0.56,30.08 2.25,7.65 4.83,15.21 8.36,22.55 3.16,6.59 6.68,13.02 11.34,18.91 2.98,3.81 6.41,7.41 9.59,11.09 0.21,0.23 0.35,0.54 0.56,0.75 -0.1,0.1 -0.23,0.17 -0.33,0.27 -0.79,-0.5 -1.6,-0.96 -2.31,-1.52 -5.47,-4.28 -10.46,-8.92 -14.89,-13.94l-6.14 -6.99c-1.02,-1.16 -2.04,-2.33 -3.04,-3.52 -1.02,-1.16 -2.02,-2.35 -2.98,-3.52l0 -0 0 -0.06c0,0 -0.06,-0.02 -0.06,-0.02 -0.06,-0.02 -0.06,-0.06 -0.08,-0.08 0,0 0,-0.02 -0.06,-0.06 -0.06,-0.04 -0.08,-0.06 -0.08,-0.13 -0.02,-0.02 -0.08,-0.08 -0.1,-0.13 -0.02,-0.02 -0.06,-0.06 -0.08,-0.1 -0.06,-0.06 -0.08,-0.1 -0.13,-0.17 -0.35,-0.4 -0.67,-0.79 -1.04,-1.21 -0.56,-0.64 -1.06,-1.29 -1.6,-1.98 -3.27,-4.12 -6.14,-8.53 -8.95,-12.96 -0.06,-0.1 -0.15,-0.23 -0.23,-0.33 -0.15,-0.25 -0.33,-0.54 -0.5,-0.79 -7.03,-11.04 -13.6,-22.3 -18.7,-34.13 -3.24,-7.51 -5.57,-15.21 -7.34,-23.05 -0.96,-4.26 -1.64,-8.61 -2.41,-12.94 -0.02,-0.21 -0.06,-0.4 -0.08,-0.58 -0.1,-0.69 -0.23,-1.37 -0.33,-2.04 -0.06,-0.27 -0.02,-0.58 0.02,-0.87l-0.04 -0.08zm153.29 -79.59c1.69,-0.27 3.39,-0.58 5.37,-0.91 -0.62,1.77 -1.52,3.2 -2.79,4.43 -4.7,4.6 -10.71,5.18 -16.83,2.81 -7.36,-2.81 -12.57,-7.34 -15.12,-13.94 -0.58,-1.52 0,-2.66 1.75,-3.35 0.15,-0.06 0.35,-0.15 0.54,-0.17 0.4,-0.1 0.91,-0.15 1.46,-0.15l0.02 0c2.2,-0.08 5.12,0.21 6.01,0.31l0.13 0c2.12,0.13 4.29,0.19 6.41,0.46 0.48,0.08 1.1,0.71 1.23,1.21 0.71,2.2 1.44,4.37 3.08,6.26 2.18,2.48 5.07,3.64 8.72,3.06l0 -0.02zm-5.26 -7.51c0,-1.87 1.52,-3.39 3.39,-3.39 1.87,0 3.39,1.52 3.39,3.39 0,1.87 -1.52,3.39 -3.39,3.39 -1.87,0 -3.39,-1.52 -3.39,-3.39z"/>
     <path class="fil1" d="M955.52 102.09c0,0 -0.1,0.15 -0.23,0.23 -0.1,0.08 -0.21,0.15 -0.33,0.23 -0.1,0.06 -0.17,0.1 -0.31,0.15 -0.4,0.21 -0.83,0.4 -1.27,0.54 -0.27,0.08 -0.62,0.15 -0.89,0.17 -0.56,0.08 -1.16,0.08 -1.77,-0.02 -3.95,-0.56 -7.88,-1.1 -11.86,-1.6 -9.21,-1.12 -18.45,-2.18 -27.67,-3.35 -5.8,-0.71 -11.29,-2.39 -16.66,-4.37 -1.62,-0.64 -3.24,-0.91 -5.12,-0.79 -2.89,0.23 -8.07,1.16 -8.47,1.29 -5.08,1.54 -10.15,3.16 -15.29,4.56 -0.23,0.06 -0.42,0.1 -0.64,0.17 -1.43,0.39 -2.41,0.64 -3.37,0.87 -0.48,0.13 -0.98,0.27 -1.54,0.4 -1.14,0.25 -2.27,0.54 -3.37,0.79 -2.08,0.5 -4.16,0.98 -6.22,1.5l4.58 -13.21c0.31,-0.06 0.58,-0.08 0.87,-0.1 0.06,-0.02 0.15,-0.02 0.21,-0.02 1.79,-0.17 3.6,-0.33 5.26,-0.46 2.04,-0.17 3.95,-0.31 5.47,-0.4 1.56,-0.1 3.16,-0.17 4.7,-0.23 3.52,-0.1 6.99,-0.06 10.48,0.06 2.12,0.08 4.26,0.15 6.41,0.25 1.43,0.08 2.81,0.13 4.26,0.19 1.1,0.06 2.23,0.15 3.35,0.21 2.23,0.13 4.49,0.25 6.68,0.4 2.25,0.17 4.45,0.35 6.7,0.56 2.2,0.23 4.43,0.48 6.63,0.79 1.12,0.15 2.23,0.31 3.35,0.48 11.57,1.83 22.78,4.64 33.43,8.95 0.71,0.31 1.39,0.62 2.04,0.96 0.5,0.25 0.67,0.54 0.58,0.81l0.02 -0.04z"/>
     <path class="fil1" d="M968.19 70.83c-1.58,-2.16 -3.27,-4.12 -5.14,-6.01 -0.94,-0.94 -1.91,-1.85 -2.91,-2.72 -0.98,-0.89 -2.04,-1.69 -3.12,-2.5 -4.28,-3.2 -9.09,-5.89 -14.31,-8.26 -0.62,-0.27 -1.21,-0.5 -1.85,-0.75 -3.08,-1.23 -6.3,-2.18 -9.59,-3 -1.29,-0.33 -2.58,-0.66 -3.89,-1.02 -1.56,-0.39 -3.14,-0.75 -4.7,-1.12 -3.56,-0.81 -7.16,-1.52 -10.77,-2.25 -1.19,-0.23 -2.41,-0.46 -3.6,-0.71 -0.35,-0.06 -0.81,0 -1.21,0.15 -0.27,0.08 -0.56,0.21 -0.75,0.35 -0.1,0.06 -0.15,0.13 -0.23,0.21 -0.08,0.06 -0.17,0.13 -0.23,0.17 -0.94,0.89 -1.35,2.08 -1.6,3.24 -0.75,3.62 -0.66,7.22 -0.15,10.8 0.35,2.79 0.4,5.53 -0.4,8.26 -0.1,0.31 -0.39,0.56 -0.58,0.87 -0.25,-0.17 -0.58,-0.35 -0.81,-0.58 -1.94,-1.85 -4.03,-3.6 -6.22,-5.22 -1.1,-0.81 -2.23,-1.6 -3.35,-2.33 -0.67,-0.48 -1.39,-0.89 -2.08,-1.27 -0.48,-0.33 -0.98,-0.66 -1.5,-0.94l-0.02 0c0,0 -0.17,-0.1 -0.25,-0.15 -0.62,-0.35 -1.06,-0.35 -1.44,0.21 -0.1,0.15 -0.21,0.33 -0.31,0.5 -0.64,0.96 -1.31,1.94 -1.94,2.91 -0.64,0.96 -1.21,1.93 -1.69,2.91 -0.35,0.75 -0.66,1.5 -0.87,2.31 -1.1,3.89 -2.35,7.74 -3.47,11.65 -0.13,0.48 -0.33,0.87 -0.66,1.21 -0.42,0.46 -0.98,0.75 -1.85,0.87 -0.1,0.02 -0.23,0.02 -0.35,0.06 -1.39,0.15 -2.73,0.33 -4.08,0.54 -3.72,0.54 -7.36,1.21 -11.02,2.02 -0.54,0.1 -1.06,0.21 -1.62,0.33 -0.56,0.13 -1.14,0.25 -1.75,0.4 -0.98,0.23 -2.02,0.48 -3,0.75 -0.08,0 -0.17,0.02 -0.25,0.06 -0.91,0.23 -1.85,0.46 -2.75,0.67 -0.56,0.15 -1.1,0.27 -1.64,0.4 -1.04,0.27 -2.08,0.56 -3.12,0.83l4.6 2.16c1.1,-0.15 2.16,-0.31 3.24,-0.42 0.48,-0.06 0.96,-0.13 1.43,-0.17 0.46,-0.06 0.89,-0.1 1.29,-0.15 0.17,-0.02 0.4,-0.06 0.58,-0.08 8.92,-0.98 17.81,-1.21 26.81,-0.96 5.32,0.15 10.57,0.39 15.85,0.71l0.06 0c3.49,0.23 7.01,0.48 10.5,0.79 1.77,0.17 3.52,0.33 5.26,0.5 3.49,0.35 7.01,0.81 10.48,1.29 3.24,0.46 6.51,1.02 9.67,1.71 1.69,0.35 3.37,0.79 4.99,1.23 0.67,0.17 1.37,0.39 2.04,0.62 0.79,0.25 1.54,0.54 2.31,0.79 2.02,0.71 4.01,1.54 5.93,2.48 0.42,0.21 0.87,0.42 1.27,0.66 0.87,0.42 1.69,0.83 2.5,1.29 0.83,0.48 1.6,0.98 2.33,1.52 0.39,0.31 0.71,0.62 1.02,0.91 0.66,0.62 1.21,1.31 1.68,2.08 1.39,2.27 2.75,4.64 3.37,7.09 0.89,3.54 1.1,7.22 1.6,10.84 0.1,0.66 0.25,1.31 0.39,2.23 0.25,-0.17 0.48,-0.31 0.64,-0.42 0.15,-0.13 0.27,-0.21 0.35,-0.31 1.12,-1.27 2.33,-2.45 3.29,-3.81 0.71,-1.02 1.35,-2.04 1.91,-3.12 0.81,-1.6 1.44,-3.24 1.98,-4.91 0.48,-1.68 0.91,-3.37 1.23,-5.08 2.25,-11.82 0,-23.01 -7.47,-33.28l-0.02 -0.02zm-47.68 -10.13c0,0.13 -0.02,0.27 -0.08,0.4 -0.02,0.13 -0.08,0.27 -0.13,0.46 -0.17,0.58 -0.54,1.19 -0.94,1.85 -0.1,0.13 -0.17,0.25 -0.27,0.39 -0.17,0.27 -0.39,0.54 -0.62,0.79 -0.4,0.56 -0.91,1.1 -1.44,1.62 -0.46,0.46 -0.89,0.89 -1.39,1.31 -0.48,0.4 -1.02,0.87 -1.54,1.27 -0.25,0.21 -0.54,0.4 -0.81,0.62 -1.12,0.83 -2.31,1.62 -3.47,2.35 -0.62,0.35 -1.21,0.71 -1.85,1.02 -1.56,0.83 -3.12,1.52 -4.64,2.02 -2,0.67 -3.87,1.04 -5.47,0.96l-0.06 0c1.04,-0.62 2.12,-1.21 3.2,-1.83 3.16,-1.77 6.22,-3.49 9.07,-5.49 3.72,-2.68 6.93,-5.89 10.4,-8.88 0.1,0.39 0.13,0.75 0.02,1.16l0.02 -0.02z"/>
    </g>
    <g>
     <g>
      <path class="fil0" d="M1523.63 647.65c-385.08,-162.13 -602.97,-43.54 -699.87,38.92 13.02,-16.81 25.57,-31.68 38.05,-44.97 2.56,-2.79 5.18,-5.6 7.9,-8.36 7.11,-7.34 14.71,-14.64 22.94,-22.03l-0 0c2.2,-2 4.43,-3.99 6.74,-5.99 8.44,-7.51 17.68,-15.19 28.17,-23.53 10.48,-7.61 22.78,-16.39 35.2,-24.88 121.65,-43.12 295.46,-55.56 537.01,39.84 11.38,4.47 25.29,18.16 31.08,30.5l3.22 6.74c5.93,12.54 1.21,18.62 -10.42,13.73l-0.02 0.02z"/>
      <path class="fil0" d="M712.87 686.57c-96.93,-82.46 -314.81,-201.05 -699.89,-38.92 -11.63,4.91 -16.35,-1.19 -10.4,-13.73l3.22 -6.74c5.8,-12.34 19.7,-26.04 31.06,-30.5 241.57,-95.4 415.38,-82.96 537.01,-39.84 12.42,8.49 24.73,17.27 35.22,24.88 10.48,8.32 19.74,16.02 28.17,23.53 2.29,2 4.54,3.99 6.74,5.97l0 0c8.22,7.41 15.81,14.71 22.94,22.05 2.7,2.75 5.32,5.57 7.88,8.36 12.5,13.27 25.05,28.16 38.07,44.97l-0.02 -0.02z"/>
     </g>
     <path class="fil0" d="M1511.04 449.31c-2.64,-0.44 -11.23,-1.68 -19.24,-2.7 -4.29,-0.58 -9.07,-1.21 -14.46,-2.04 -25.21,-3.06 -61.26,-5.87 -103.65,-6.64 -84.64,-1.56 -196.8,6.26 -300.98,44.43 -26.79,9.34 -52.96,21.43 -78.55,34.91 -13.04,6.61 -25.23,14.94 -38.03,22.2 -12.4,8.49 -24.71,17.22 -36.9,25.96 -7.78,6.16 -15.48,12.44 -23.07,18.95 -2.08,1.79 -4.16,3.6 -6.22,5.43 -13.5,11.77 -26.52,24.23 -38.86,37.63 -1.79,1.91 -3.6,3.85 -5.37,5.8 -19.49,21.3 -37.48,44.47 -53.79,67.31l-2.35 3.62c-1.27,2.06 -3.62,5.57 -5.2,7.84 -0.89,1.41 -1.79,2.81 -2.58,4.35 -2.25,3.37 -4.54,6.72 -6.8,10.21 -0.71,1.14 -1.56,2.02 -2.43,2.54 -3.5,2.91 -7.93,1.96 -10.96,-2.54 -2.25,-3.49 -4.49,-6.84 -6.72,-10.21 -0.85,-1.54 -1.69,-2.95 -2.66,-4.35 -1.52,-2.27 -3.87,-5.78 -5.2,-7.84 -0.71,-1.21 -1.56,-2.41 -2.35,-3.62 -16.31,-22.84 -34.3,-46.01 -53.79,-67.31 -1.79,-1.94 -3.58,-3.89 -5.37,-5.8 -14.23,-15.45 -29.37,-29.66 -45.08,-43.1 -7.55,-6.47 -15.23,-12.77 -23.01,-18.91 -12.25,-8.74 -24.53,-17.49 -36.96,-25.96 -12.75,-7.28 -25,-15.6 -38.03,-22.2 -25.54,-13.48 -51.73,-25.57 -78.52,-34.91 -104.22,-38.17 -216.34,-45.99 -300.96,-44.43 -42.39,0.77 -78.52,3.58 -103.7,6.64 -5.33,0.83 -10.17,1.48 -14.46,2.04 -7.93,1.02 -16.54,2.25 -19.24,2.7 -2.64,0.52 6.97,-15.23 21.07,-34.7l108.79 -149.63c11.77,-16.16 34.3,-26.79 50.21,-23.4 9.15,1.93 18.82,4.03 28.87,6.43 77.4,18.66 180.51,53.69 276.1,117.96 25.11,16.52 49.65,35.49 73.43,55.93 12.36,10.15 23.78,22.3 35.67,33.08 1.43,1.52 2.85,3.02 4.28,4.54 10.05,10.67 20.01,21.36 29.87,32.18 22.19,26.21 43.45,53.71 62.36,82.87 11.19,17.18 21.68,34.88 31.45,52.71 1.23,2.23 2.5,4.22 3.87,5.99 10.19,13.46 23.38,13.46 33.61,0 1.35,-1.77 2.66,-3.76 3.89,-5.99 9.74,-17.81 20.26,-35.51 31.39,-52.71 18.91,-29.14 40.17,-56.64 62.36,-82.87 9.92,-10.8 19.78,-21.45 29.85,-32.12 1.44,-1.54 2.91,-3.08 4.37,-4.62 11.86,-10.78 23.28,-22.94 35.65,-33.08 23.73,-20.45 48.34,-39.4 73.43,-55.93 95.54,-64.24 198.65,-99.29 276.1,-117.96 10.01,-2.41 19.68,-4.51 28.81,-6.43 15.98,-3.39 38.46,7.24 50.21,23.4l108.85 149.63c14.12,19.47 23.65,35.22 21.01,34.7l0.04 0.02z"/>
    </g>
    <path class="fil0" d="M906.2 358.09l-12.21 92.67c-7.88,8.38 -16.14,17.31 -25.71,27.69l-0.25 0.31 -0.27 0.29c-25.32,29.93 -46.2,57.7 -63.84,84.85 -11.21,17.33 -22.03,35.49 -32.14,53.96 -0.69,1.27 -1.46,2.47 -2.25,3.47 -0.46,0.62 -0.89,1.12 -1.25,1.5 -0.35,-0.37 -0.73,-0.83 -1.16,-1.39 -0.81,-1.06 -1.56,-2.25 -2.33,-3.64 -10.26,-18.76 -21.11,-36.92 -32.16,-53.92 -17.62,-27.13 -38.5,-54.89 -63.82,-84.83l-0.23 -0.27 -0.23 -0.25c-7.59,-8.34 -15.66,-17.08 -25.77,-27.83l-12.19 -92.61 275.81 -0z"/>
    <path class="fil0" d="M906.2 358.09l-12.21 92.67c-7.88,8.38 -16.14,17.31 -25.71,27.69l-0.25 0.31 -0.27 0.29c-25.32,29.93 -46.2,57.7 -63.84,84.85 -11.21,17.33 -22.03,35.49 -32.14,53.96 -0.69,1.27 -1.46,2.47 -2.25,3.47 -0.46,0.62 -0.89,1.12 -1.25,1.5 -0.35,-0.37 -0.73,-0.83 -1.16,-1.39 -0.81,-1.06 -1.56,-2.25 -2.33,-3.64 -10.26,-18.76 -21.11,-36.92 -32.16,-53.92 -17.62,-27.13 -38.5,-54.89 -63.82,-84.83l-0.23 -0.27 -0.23 -0.25c-7.59,-8.34 -15.66,-17.08 -25.77,-27.83l-12.19 -92.61 275.81 -0z"/>
   </g>
  </g>
 </g>
</svg>
