<?xml version="1.0" encoding="UTF-8"?>
<!DOCTYPE svg PUBLIC "-//W3C//DTD SVG 1.1//EN" "http://www.w3.org/Graphics/SVG/1.1/DTD/svg11.dtd">
<!-- Creator: CorelDRAW -->
<svg xmlns="http://www.w3.org/2000/svg" xml:space="preserve" width="9.85146in" height="9.85146in" version="1.1" style="shape-rendering:geometricPrecision; text-rendering:geometricPrecision; image-rendering:optimizeQuality; fill-rule:evenodd; clip-rule:evenodd"
viewBox="0 0 2087.23 2087.23"
 xmlns:xlink="http://www.w3.org/1999/xlink"
 xmlns:xodm="http://www.corel.com/coreldraw/odm/2003">
 <defs>
  <style type="text/css">
   <![CDATA[
    .fil0 {fill:#4A94C4;fill-rule:nonzero}
    .fil1 {fill:#FFD400;fill-rule:nonzero}
   ]]>
  </style>
 </defs>
 <g id="Layer_x0020_1">
  <metadata id="CorelCorpID_0Corel-Layer"/>
  <g id="_105553179428192">
   <g>
    <g>
     <path class="fil0" d="M910.69 918.33l255.81 0c16.09,0 29.22,-15.58 29.31,-34.67 0.09,-19.25 -12.95,-34.76 -29.13,-34.76l-1.21 0c-2.38,-6.62 -4.86,-13.44 -7.37,-20.48 -7.02,-19.47 -11.98,-37.83 -14.74,-54.64 -2.01,-12.36 -2.94,-24.17 -2.69,-35.05 0.29,-13.73 2.41,-26.4 6.27,-37.67 6.25,-18.07 16.02,-30.24 25.27,-38.23 7.75,-4.97 13.68,-6.75 14.37,-6.95 0.02,-0.02 0.07,-0.02 0.07,-0.02 2.87,-2.3 6.29,-3.84 10.46,-4.33 0.24,-0.07 0.49,-0.09 0.82,-0.09 1.19,-0.15 2.49,-0.15 3.86,-0.09 10.95,0.53 21.74,1.92 32.49,3.53 5.01,0.77 9.93,1.94 14.92,2.78 2.76,0.49 5.54,0.71 8.3,1.08 2.3,0.31 3.69,1.46 4.37,3.31 1.41,3.71 1.54,7.42 0.53,11.19 -1.68,6.16 -5.1,11.56 -8.87,16.88 -1.21,1.79 -2.58,3.53 -3.91,5.32 0.07,0.07 0.11,0.15 0.18,0.24 0.46,-0.18 0.99,-0.29 1.39,-0.49 4.04,-2.03 8.14,-3.88 12.01,-6.16 16.13,-9.53 25.47,-22.69 28.4,-39.2 1.02,-5.74 0.95,-11.54 0.29,-17.35 -0.35,-3.05 -0.95,-6.11 -1.83,-9.11 -1.79,-6.09 -4.86,-11.74 -8.98,-16.97 -5.39,-6.84 -11.92,-12.82 -19.91,-17.5 -3.53,-2.12 -7.37,-3.97 -11.32,-5.47 -5.78,-2.21 -11.61,-4.37 -17.66,-5.87 -9.78,-2.34 -19.73,-4.13 -29.64,-6.09 -1.68,-0.35 -3.13,-0.95 -4.44,-1.96 -2.32,-1.77 -4.7,-3.51 -7.08,-5.23 -11.92,-8.65 -25.67,-14.46 -40.39,-18.72 -13.48,-3.97 -27.39,-6.75 -41.49,-8.94 -14.59,-2.27 -29.24,-3.86 -44.1,-4.15 -12.09,-0.27 -24.19,0.29 -36.26,1.28 -3.42,0.27 -6.89,0.64 -10.31,0.99 -1.65,0.18 -1.94,0.66 -0.86,1.77 1.19,1.28 2.47,2.49 3.8,3.75 1.02,0.93 2.12,1.79 3.16,2.74 0.75,0.73 0.66,1.3 -0.49,1.63 -1.81,0.49 -3.58,1.13 -5.41,1.48 -16.88,3.42 -33.22,8.19 -49,14.39 -4.77,1.88 -9.34,4.06 -13.99,6.11 -0.4,0.18 -0.73,0.49 -1.37,1.02 4.5,0.91 8.65,1.68 12.73,2.6 4.08,0.91 8.12,1.88 12.09,3.71 -0.71,0.46 -1.13,0.77 -1.57,1.04 -1.77,1.04 -3.53,2.03 -5.28,3.11 -14.01,8.94 -25.12,20.08 -33.86,32.93 -5.56,8.14 -9.53,16.95 -13.59,25.73 -0.09,0.15 -0.07,0.31 -0.11,0.91 12.89,-8.92 27.06,-15.14 41.98,-20.57 -0.31,0.44 -0.53,0.91 -0.84,1.26 -5.54,6.2 -10.33,12.8 -13.29,20.24 -1.63,4.15 -3.69,8.19 -4.99,12.43 -0.46,1.65 -0.84,3.31 -1.04,5.08 -0.09,0.99 -0.31,2.56 -0.57,3.51 -1.3,5.19 -2.23,10.42 -2.41,15.63l0 0.35c-0.09,3.11 -0.07,6.2 -0.02,9.34l-21.14 127.06c-2.07,12.43 -4.63,24.74 -7.68,36.94l-4.15 -0c-16.18,0 -29.22,15.51 -29.13,34.76 0,19.09 13.2,34.67 29.31,34.67l-0.07 -0.02zm295.09 -303.7c-0.24,0.15 -0.49,0.27 -0.73,0.38 0.4,-0.2 0.77,-0.44 1.17,-0.66 -0.15,0.09 -0.29,0.2 -0.44,0.29zm12.09 -11.96c0,0 -0.07,0.18 -0.09,0.29 -0.02,0.07 -0.07,0.11 -0.09,0.18 0.07,-0.15 0.11,-0.31 0.18,-0.46zm-1.02 2.12c-0.07,0.11 -0.09,0.2 -0.15,0.29 -0.11,0.15 -0.2,0.29 -0.31,0.44 -0.11,0.2 -0.27,0.38 -0.4,0.55 0.31,-0.44 0.62,-0.84 0.86,-1.28l-0 0zm-2.49 3.13c-0.11,0.11 -0.2,0.24 -0.31,0.35 -0.31,0.31 -0.66,0.64 -1.02,0.95 0.46,-0.44 0.91,-0.86 1.32,-1.3l-0 0zm-10.31 -26.81c1.37,0.29 2.76,0.55 4.13,0.82 -1.37,-0.27 -2.76,-0.53 -4.13,-0.77 -0.18,-0.02 -0.38,-0.02 -0.62,-0.02 0.24,-0.02 0.44,-0.02 0.62,0l0 -0.02zm-2.27 0.57c0.24,-0.18 0.55,-0.31 0.86,-0.4 -0.31,0.11 -0.64,0.27 -0.86,0.44 -0.09,0.07 -0.18,0.15 -0.27,0.2 0.09,-0.09 0.15,-0.18 0.27,-0.24zm-34.38 40.9c-1.59,0.18 -3.13,0.38 -4.68,0.57 1.54,-0.24 3.07,-0.44 4.68,-0.62 0.15,-0.02 0.29,-0.02 0.4,-0.07 -0.11,0.07 -0.27,0.09 -0.4,0.09l0 0.02zm12.43 -25.12c0.11,-0.18 0.24,-0.4 0.35,-0.57 0.44,-0.64 0.95,-0.64 1.65,-0.22 0.09,0.07 0.2,0.11 0.29,0.18 -0.77,0.27 -1.5,0.49 -2.3,0.64l0 -0.02zm-221.05 92.08l0 0c0,0 0,-0.09 0.02,-0.11 0.02,-0.2 0.09,-0.38 0.18,-0.57 0.09,-0.29 0.24,-0.62 0.4,-0.86 0.84,-1.37 1.68,-2.76 2.52,-4.15l0.15 -0.27 4.77 -7.59 1.08 -1.72 0.46 -0.71 0.71 -1.1c0.44,-0.66 0.84,-1.37 1.3,-2.03 0.46,-0.75 0.95,-1.5 1.46,-2.23 0.15,-0.24 0.29,-0.46 0.4,-0.71 0.46,-0.71 0.91,-1.41 1.3,-2.18l0.29 -0.44 0.18 -0.35c1.08,-1.96 2.1,-4.04 2.85,-6.18 2.76,-7.55 6.58,-14.7 10.88,-21.69 0.24,-0.4 0.4,-0.82 0.38,-1.39 -0.35,0.29 -0.77,0.55 -1.08,0.86 -1.28,1.57 -2.69,3.05 -3.69,4.72 -3.2,5.14 -7.31,9.67 -11.45,14.21 -3.24,3.58 -6.47,7.11 -9.76,10.64 -0.31,0.4 -0.75,0.71 -1.1,1.04 -0.15,-0.02 -0.27,-0.07 -0.4,-0.09 0,-0.77 -0.02,-1.54 0,-2.3 0.11,-4.9 1.65,-9.58 3.33,-14.15 4.44,-11.98 11.41,-22.95 20.46,-32.86 4.35,-4.77 8.96,-9.47 14.79,-13 7.31,-4.41 14.85,-8.52 22.31,-12.8 1.39,-0.82 2.85,-1.54 4.24,-2.43 -2.49,0.4 -5.05,0.84 -7.5,1.28 -2.05,0.35 -4.13,0.71 -6.18,1.08 -10.31,1.94 -20.48,4.24 -30.37,7.28 -1.08,0.31 -2.18,0.71 -3.24,1.04 -1.1,0.35 -2.18,0.73 -3.29,1.1 -1.04,0.38 -2.14,0.77 -3.22,1.17 -5.56,2.1 -11.01,4.44 -16.35,7.19 0.02,-0.02 0.09,-0.07 0.11,-0.11 0.11,-0.2 0.24,-0.44 0.38,-0.64 0.15,-0.29 0.35,-0.55 0.55,-0.75 1.02,-1.1 2.1,-2.21 3.2,-3.31 0.35,-0.31 0.66,-0.64 1.02,-0.93 0.24,-0.27 0.46,-0.49 0.75,-0.77l0.77 -0.75c0.49,-0.49 1.04,-1.04 1.63,-1.57l0.18 -0.18c0.24,-0.2 0.46,-0.4 0.71,-0.64 0.46,-0.4 0.95,-0.84 1.41,-1.28 0.07,-0.07 0.11,-0.11 0.2,-0.18 0.09,-0.11 0.2,-0.2 0.29,-0.29 0,0.02 -0.02,0.07 -0.07,0.11 0.2,-0.2 0.4,-0.4 0.66,-0.57 0.2,-0.2 0.4,-0.4 0.64,-0.57 0.24,-0.2 0.44,-0.38 0.71,-0.57 0.29,-0.27 0.62,-0.53 0.93,-0.75 0.07,-0.02 0.15,-0.11 0.2,-0.18 0.4,-0.38 0.82,-0.71 1.28,-1.02 0.73,-0.57 1.46,-1.19 2.23,-1.74 0.2,-0.18 0.44,-0.35 0.66,-0.49 0.71,-0.55 1.46,-1.08 2.21,-1.57 1.32,-0.95 2.74,-1.88 4.17,-2.78 0.4,-0.27 0.82,-0.49 1.21,-0.73 1.46,-0.91 2.96,-1.72 4.5,-2.49 0.71,-0.38 1.37,-0.71 2.1,-1.04 0.29,-0.18 0.55,-0.29 0.84,-0.4 0.86,-0.4 1.74,-0.84 2.6,-1.21 2.32,-1.02 4.61,-2.21 6.84,-3.44 0.4,-0.24 0.84,-0.44 1.26,-0.66 0.15,-0.07 0.24,-0.11 0.35,-0.18 0.11,-0.07 0.24,-0.11 0.38,-0.15 0.4,-0.24 0.84,-0.44 1.26,-0.64 0.27,-0.11 0.55,-0.27 0.82,-0.35 0.84,-0.38 1.72,-0.73 2.56,-1.04 1.83,-0.73 3.69,-1.37 5.54,-1.94 0.35,-0.11 0.64,-0.24 0.93,-0.31 0,0 0.02,-0 0.07,-0.02 0.04,-0.01 0.07,0 0.09,-0.02 0.15,-0.02 0.27,-0.09 0.35,-0.11 0.15,-0.02 0.24,-0.07 0.31,-0.09l0.02 -0c0,0 0.09,-0.07 0.15,-0.09l0.09 0c0,0 0.02,-0.02 0.07,-0.07 0.07,0 0.09,-0.02 0.11,-0.02 0.11,-0.02 0.2,-0.07 0.27,-0.09 0.02,0 0.07,0 0.07,-0.02l0.02 -0c0,0 0.09,-0.02 0.09,-0.02 0.09,-0.02 0.18,-0.15 0.46,-0.46 -0.64,-0.24 -1.17,-0.55 -1.74,-0.66 -6.93,-1.57 -13.9,-3.11 -20.86,-4.63 -0.49,-0.11 -1.02,-0.27 -1.77,-0.44 0.44,-0.31 0.64,-0.55 0.86,-0.71 5.28,-2.18 10.48,-4.59 15.87,-6.42 4.46,-1.5 9.23,-2.41 13.9,-3.4 6.11,-1.21 12.29,-2.23 18.45,-3.35 1.77,-0.31 1.74,-0.38 0.93,-1.77 -1.28,-2.23 -2.43,-4.52 -3.69,-6.8 -0.49,-0.93 -0.09,-1.37 1.04,-1.46 2.58,-0.18 5.16,-0.44 7.77,-0.55 1.48,-0.07 2.96,-0.11 4.44,-0.18 0.91,-0.02 1.85,-0.07 2.76,-0.07 0.18,0 0.4,0 0.62,-0.02l0.15 -0c10.24,-0.18 20.48,0.27 30.72,1.08 7.48,0.62 14.94,1.3 22.4,2.14 9.11,1.08 18.05,2.87 26.75,5.34 6.66,1.88 13.37,3.66 19.93,5.78 0.02,0 0.07,0 0.07,0.02 0.24,0.07 0.44,0.15 0.71,0.2 0.84,0.31 1.65,0.62 2.47,0.86 0.71,0.27 1.39,0.53 2.05,0.75 1.02,0.38 2.01,0.77 2.94,1.17 0.66,0.27 1.32,0.53 1.96,0.77 3.6,1.54 7.11,3.24 10.51,5.08 0.11,0.07 0.27,0.11 0.35,0.18 0.18,0.09 0.38,0.2 0.55,0.29 0.11,0.07 0.24,0.11 0.31,0.2 0.02,0 0.07,0 0.09,0.02 0.99,0.55 2.01,1.1 2.98,1.68 0.82,0.49 1.59,0.99 2.34,1.54 0.64,0.44 1.26,0.93 1.83,1.46 0.02,0.02 0.09,0.07 0.11,0.09 0.07,0.02 0.11,0.09 0.15,0.11 0.38,0.31 0.73,0.64 1.1,1.04 0.29,0.27 0.57,0.53 0.84,0.82 0.66,0.71 1.3,1.46 1.92,2.18 0.35,0.46 0.64,0.93 0.84,1.39 0.09,0.15 0.11,0.29 0.15,0.44l0 0.11c0,0 0.02,0.09 0.02,0.15l0.02 0c0,0 0.02,0.11 0,0.15l0 0.24c0.07,0.24 0.02,0.49 0,0.73l0 0.15c0.02,0.11 0,0.2 -0.07,0.31l0 0c-0.02,0.15 -0.07,0.29 -0.11,0.4 -0.02,0.11 -0.07,0.27 -0.11,0.38 -0.02,0.09 -0.07,0.18 -0.15,0.27 -0.07,0.15 -0.15,0.29 -0.22,0.44 -0.07,0.11 -0.11,0.18 -0.18,0.27 -0.09,0.11 -0.18,0.22 -0.24,0.35 -0.15,0.11 -0.27,0.24 -0.35,0.35 -0.27,0.35 -0.53,0.66 -0.82,0.99 0.07,-0.07 0.11,-0.11 0.2,-0.18 -0.15,0.11 -0.27,0.24 -0.38,0.38 -0.38,0.4 -0.82,0.84 -1.28,1.21 -0.75,0.64 -1.59,1.17 -2.52,1.65 -1.74,0.91 -3.58,0.57 -5.32,0 -3.91,-1.39 -7.81,-2.89 -11.7,-4.37 -6.91,-2.58 -13.73,-5.25 -20.64,-7.75 -2.34,-0.82 -4.9,-1.26 -7.37,-1.79 -0.29,-0.09 -0.66,-0.15 -0.95,-0.09 -0.46,0.11 -0.84,0.31 -1.28,0.49 0.35,0.27 0.64,0.57 1.04,0.73 3.02,0.93 6.09,1.74 9.05,2.78 4.55,1.63 7.37,4.9 10.13,8.21 0.66,0.82 0.35,1.41 -0.91,1.41 -2.18,0 -4.37,-0.02 -6.47,-0.4 -8.28,-1.5 -16.51,-3.29 -24.81,-4.68 -8.52,-1.46 -17.08,-2.94 -25.73,-3.77 -11.96,-1.17 -24.01,-1.77 -36,-2.65 -3.2,-0.2 -6.33,-0.49 -9.47,-0.73 -0.49,-0.07 -1.02,-0.09 -1.94,-0.15 0.57,0.64 0.82,1.13 1.28,1.41 2.6,1.77 5.19,3.66 7.97,5.16 4.68,2.58 9.51,4.92 14.3,7.37 8.14,4.13 15.51,9.05 22.44,14.48 6.66,5.19 14.61,8.03 23.24,9.8 4.9,1.02 9.78,1.5 14.7,0.09 4.86,-1.32 9.4,-3.2 12.82,-6.55 2.49,-2.41 3.51,-5.36 3.91,-8.5 0.02,-0.24 0.02,-0.49 0.02,-0.73 0.09,-1.32 0.73,-1.63 1.96,-0.77 2.58,1.65 5.08,3.44 7.55,5.25 0.82,0.62 1.57,1.26 2.32,1.88 0.15,-0.07 0.29,-0.09 0.44,-0.15 -0.07,-0.46 0.02,-0.95 -0.15,-1.37 -0.86,-2.03 -1.79,-3.99 -2.65,-6 -0.18,-0.4 -0.27,-1.08 -0.02,-1.3 0.27,-0.27 1.04,-0.27 1.54,-0.11 4.72,1.13 9.16,2.83 13,5.52 0.46,0.31 0.86,0.91 0.91,1.37 0.09,2.96 -0.38,6.09 -0.77,8.98 -0.15,0.95 -0.31,1.77 -0.53,2.52 -0.15,0.53 -0.27,0.99 -0.4,1.48 -0.18,0.71 -0.4,1.37 -0.62,2.14 -0.02,0.09 -0.07,0.24 -0.09,0.35 -0.18,0.46 -0.44,1.08 -0.66,1.72 -0.24,0.62 -0.49,1.21 -0.62,1.74 -0.31,1.13 -1.08,1.57 -2.34,1.72 -8.52,0.95 -17.08,1.88 -25.58,2.87 -5.47,0.62 -10.97,1.3 -16.44,1.94 -6.27,0.73 -12.54,1.5 -18.82,2.18 -11.32,1.21 -21.98,3.97 -31.89,8.85 -5.54,2.74 -11.1,5.36 -16.49,8.28 -6.47,3.58 -11.81,8.3 -16.97,13.09 -3.2,2.98 -6.33,6.02 -9.2,9.2 -3.11,3.49 -5.89,7.19 -8.76,10.81 -4.24,5.36 -7.81,11.01 -10.64,16.99 -0.31,0.73 -0.35,1.5 -0.53,2.27 0.11,0.02 0.2,0.07 0.31,0.09 0.84,-1.37 1.83,-2.67 2.43,-4.06 1.3,-2.76 3.58,-4.99 5.65,-7.35 4.63,-5.05 9.16,-10.24 14.19,-15.05 4.52,-4.3 9.42,-8.32 14.5,-12.18 1.04,-0.82 2.12,-1.57 3.16,-2.32 0,-0 0.02,-0.01 0.07,-0.02 0.55,-0.4 1.08,-0.77 1.59,-1.13 1.28,-0.91 2.58,-1.74 3.88,-2.56 1.28,-0.84 2.56,-1.59 3.86,-2.38 1.46,-0.84 2.94,-1.72 4.41,-2.49 1.1,-0.62 2.21,-1.21 3.33,-1.77 0.73,-0.38 1.46,-0.73 2.18,-1.1 4.06,-2.05 8.28,-3.95 12.54,-5.74 0.09,-0.07 0.2,-0.09 0.35,-0.11 0.02,-0.02 0.09,-0.07 0.11,-0.07 0.02,-0.02 0.07,-0.02 0.09,-0.07 0.66,-0.27 1.32,-0.55 2.01,-0.82 6.89,-2.85 13.99,-4.86 21.56,-5.63 0.35,-0.07 0.66,-0.11 1.02,-0.11 0.86,0.02 2.05,-0.4 2.43,0.64 0.38,1.04 0.02,2.03 -1.12,2.65 -2.03,1.08 -4.13,2.14 -6.16,3.22 -1.19,0.64 -2.3,1.37 -3.42,2.05 0.07,0.15 0.15,0.29 0.2,0.44 0.71,-0.09 1.41,-0.11 2.03,-0.31 4.81,-1.37 9.67,-2.65 14.37,-4.24 4.46,-1.5 8.74,-3.42 13.18,-5.01 0.95,-0.31 1.92,-0.62 2.89,-0.91l5.28 2.47c-0.62,0.09 -1.26,0.15 -1.85,0.24 -1.28,0.18 -2.43,0.31 -3.42,0.49 -0.64,0.09 -1.19,0.35 -0.73,0.93 0.66,0.82 0.2,1.24 -0.46,1.72 -0.57,0.44 -1.13,0.93 -1.85,1.57 0.53,0.07 0.71,0.11 0.84,0.09 2.96,-0.71 5.98,-1.17 8.96,-1.57 0.77,-0.11 1.59,-0.2 2.38,-0.27l-5.25 15.14c-5.63,1.37 -11.19,2.85 -16.6,4.79 -6.55,2.32 -13,4.81 -19.31,7.57 -3.02,1.28 -5.72,3.13 -8.32,4.99 -4.22,2.98 -8.41,6 -12.2,9.31 -3.33,2.89 -6.47,6.07 -9.03,9.42 -3.24,4.35 -5.91,8.96 -8.61,13.57 -1.08,1.81 -1.63,3.8 -2.43,5.72 0.18,0.09 0.35,0.18 0.49,0.27 0.49,-0.55 1.04,-1.1 1.46,-1.68 1.68,-2.52 3.22,-5.1 4.92,-7.59 4.59,-6.8 10.59,-12.58 17.96,-17.19 8.5,-5.34 17.55,-10.02 27.03,-13.93 6.4,-2.67 13.02,-4.99 19.55,-7.48 1.19,-0.44 2.41,-0.93 3.66,-1.24 1.46,-0.38 2.96,-0.53 4.44,-0.75 0.07,0.15 0.11,0.31 0.18,0.46 -1.72,0.77 -3.49,1.5 -5.19,2.3 -8.67,3.97 -17.17,8.1 -23.92,14.39 -4.63,4.3 -8.45,8.98 -11.32,14.24 -2.12,3.86 -3.99,7.77 -5.8,11.74 -1.3,2.98 -2.32,6.07 -3.42,9.07 -0.24,0.57 -0.29,1.13 -0.4,1.72 0.2,0.07 0.4,0.15 0.57,0.2 0.4,-0.4 0.95,-0.79 1.3,-1.28 2.3,-3.42 4.46,-6.91 6.89,-10.26 4.06,-5.65 8.92,-10.77 14.57,-15.34 8.45,-6.82 17.99,-12.27 28.16,-16.97 1.39,-0.66 2.85,-1.28 4.35,-1.74 0.93,-0.29 2.01,-0.29 3.02,-0.44 0.82,-0.11 1.59,-0.2 2.85,-0.31 -20.86,10.95 -31.49,26.95 -34.14,47.05 -0.55,4.13 -0.07,8.28 0.75,12.36 0.18,0.02 0.38,0.07 0.57,0.09 0.24,-0.53 0.57,-1.04 0.77,-1.63 1.72,-4.79 2.87,-9.76 5.39,-14.32 2.43,-4.41 5.54,-8.41 8.83,-12.36 1.04,-1.3 2.05,-2.56 3.31,-3.84 0.02,4.92 0.09,9.8 1.3,14.59 -3.44,10.02 -5.72,21.94 -6,36.08 -15.58,0.15 -30.96,1.77 -46.13,4.81 -7.28,1.48 -14.54,3.29 -21.61,5.43 -5.34,1.65 -10.42,3.99 -15.49,6.25 -2.8,1.26 -5.61,2.56 -8.39,3.88l-0.02 -0c0,0 -0.11,0.09 -0.11,0.09 -0.07,0.02 -0.11,0.07 -0.18,0.09l-0.02 0c-1.96,0.95 -3.91,1.92 -5.83,2.94 -2.34,1.26 -4.44,2.85 -6.64,4.3 -0.35,0.2 -0.64,0.44 -1.19,0.84 -0.11,-0.53 -0.27,-0.84 -0.27,-1.17l0 -5.16c0,-2.05 0,-4.08 0.02,-6.16 0,-1.04 0.02,-2.05 0.07,-3.11 0.02,-0.35 0.02,-0.71 0.02,-1.04 0.11,-4.77 0.38,-9.53 1.02,-14.3 1.17,-8.56 2.76,-17.04 5.47,-25.29 0.38,-1.17 0.82,-2.34 1.21,-3.51 2.43,-6.55 5.16,-12.98 7.92,-19.4 0.07,-0.15 0.15,-0.27 0.2,-0.38 0.09,-0.2 0.18,-0.4 0.27,-0.62 2.69,-6.18 6.27,-11.96 10.26,-17.52 0.62,-0.84 1.17,-1.59 1.57,-2.18 0.4,-0.53 0.82,-1.08 1.21,-1.59 0,-0.02 0.02,-0.02 0.07,-0.07 0,0 0.01,-0.02 0.02,-0.07 0.02,-0.04 0.07,-0.09 0.07,-0.09 1.94,-2.49 3.95,-4.99 5.98,-7.44 3.6,-4.35 8.03,-8.23 12.09,-12.29 2.21,-2.21 4.5,-4.33 6.71,-6.53 0.55,-0.49 0.84,-1.21 1.21,-1.79 -0.09,-0.09 -0.2,-0.2 -0.29,-0.29 -0.71,0.27 -1.46,0.46 -2.12,0.77 -1.04,0.49 -2.05,1.02 -3.05,1.5 -2.03,1.02 -4.04,2.03 -5.94,3.22 -0.82,0.46 -1.59,0.95 -2.34,1.5l-0.02 0c-0.62,0.4 -1.21,0.84 -1.77,1.28 -4.92,3.77 -9.98,7.5 -14.77,11.45 -3.51,2.94 -6.75,6.07 -9.95,9.23 -4.06,4.06 -8.06,8.12 -11.83,12.36 -7.5,8.45 -13.77,17.46 -17.61,27.65 -0.18,0.53 -0.4,1.04 -0.57,1.57 0,0.02 -0.02,0.02 -0.02,0.07 -1.54,4.06 -3.05,8.12 -4.33,12.25 -0.02,0.02 -0.02,0.09 -0.02,0.11 -0.31,1.08 -0.66,2.14 -0.95,3.22 -0.24,0.71 -0.4,1.37 -0.57,2.01 -0.02,0.09 -0.07,0.18 -0.07,0.27 -0.35,1.17 -0.64,2.34 -0.86,3.53 -2.65,11.52 -2.76,23 0.64,34.47 2.58,8.76 5.54,17.44 9.58,25.84 3.62,7.55 7.66,14.92 13,21.67 3.42,4.37 7.35,8.5 10.99,12.71 0.24,0.27 0.4,0.62 0.64,0.86 -0.11,0.11 -0.27,0.2 -0.38,0.31 -0.91,-0.57 -1.83,-1.1 -2.65,-1.74 -6.27,-4.9 -11.98,-10.22 -17.06,-15.98l-7.04 -8.01c-1.17,-1.32 -2.34,-2.67 -3.49,-4.04 -1.17,-1.32 -2.32,-2.69 -3.42,-4.04l0 -0 0 -0.07c0,0 -0.07,-0.02 -0.07,-0.02 -0.07,-0.02 -0.07,-0.07 -0.09,-0.09 0,0 0,-0.02 -0.07,-0.07 -0.07,-0.04 -0.09,-0.07 -0.09,-0.15 -0.02,-0.02 -0.09,-0.09 -0.11,-0.15 -0.02,-0.02 -0.07,-0.07 -0.09,-0.11 -0.07,-0.07 -0.09,-0.11 -0.15,-0.2 -0.4,-0.46 -0.77,-0.91 -1.19,-1.39 -0.64,-0.73 -1.21,-1.48 -1.83,-2.27 -3.75,-4.72 -7.04,-9.78 -10.26,-14.85 -0.07,-0.11 -0.18,-0.27 -0.27,-0.38 -0.18,-0.29 -0.38,-0.62 -0.57,-0.91 -8.06,-12.65 -15.58,-25.56 -21.43,-39.11 -3.71,-8.61 -6.38,-17.44 -8.41,-26.42 -1.1,-4.88 -1.88,-9.87 -2.76,-14.83 -0.02,-0.24 -0.07,-0.46 -0.09,-0.66 -0.11,-0.79 -0.27,-1.57 -0.38,-2.34 -0.07,-0.31 -0.02,-0.66 0.02,-0.99l-0.04 -0.09zm175.67 -91.21c1.94,-0.31 3.88,-0.66 6.16,-1.04 -0.71,2.03 -1.74,3.66 -3.2,5.08 -5.39,5.28 -12.27,5.94 -19.29,3.22 -8.43,-3.22 -14.41,-8.41 -17.32,-15.98 -0.66,-1.74 0,-3.05 2.01,-3.84 0.18,-0.07 0.4,-0.18 0.62,-0.2 0.46,-0.11 1.04,-0.18 1.68,-0.18l0.02 0c2.52,-0.09 5.87,0.24 6.88,0.35l0.15 0c2.43,0.15 4.92,0.22 7.35,0.53 0.55,0.09 1.26,0.82 1.41,1.39 0.82,2.52 1.65,5.01 3.53,7.17 2.49,2.85 5.8,4.17 10,3.51l0 -0.02zm-6.02 -8.61c0,-2.14 1.74,-3.88 3.88,-3.88 2.14,0 3.88,1.74 3.88,3.88 0,2.14 -1.74,3.88 -3.88,3.88 -2.14,0 -3.88,-1.74 -3.88,-3.88z"/>
     <path class="fil1" d="M1258.16 649.41c0,0 -0.11,0.18 -0.27,0.27 -0.11,0.09 -0.24,0.18 -0.38,0.27 -0.11,0.07 -0.2,0.11 -0.35,0.18 -0.46,0.24 -0.95,0.46 -1.46,0.62 -0.31,0.09 -0.71,0.18 -1.02,0.2 -0.64,0.09 -1.32,0.09 -2.03,-0.02 -4.52,-0.64 -9.03,-1.26 -13.59,-1.83 -10.55,-1.28 -21.14,-2.49 -31.71,-3.84 -6.64,-0.82 -12.93,-2.74 -19.09,-5.01 -1.85,-0.73 -3.71,-1.04 -5.87,-0.91 -3.31,0.27 -9.25,1.32 -9.71,1.48 -5.83,1.77 -11.63,3.62 -17.52,5.23 -0.27,0.07 -0.49,0.11 -0.73,0.2 -1.63,0.44 -2.76,0.73 -3.86,0.99 -0.55,0.15 -1.13,0.31 -1.77,0.46 -1.3,0.29 -2.6,0.62 -3.86,0.91 -2.38,0.57 -4.77,1.13 -7.13,1.72l5.25 -15.14c0.35,-0.07 0.66,-0.09 0.99,-0.11 0.07,-0.02 0.18,-0.02 0.24,-0.02 2.05,-0.2 4.13,-0.38 6.02,-0.53 2.34,-0.2 4.52,-0.35 6.27,-0.46 1.79,-0.11 3.62,-0.2 5.39,-0.27 4.04,-0.11 8.01,-0.07 12.01,0.07 2.43,0.09 4.88,0.18 7.35,0.29 1.63,0.09 3.22,0.15 4.88,0.22 1.26,0.07 2.56,0.18 3.84,0.24 2.56,0.15 5.14,0.29 7.66,0.46 2.58,0.2 5.1,0.4 7.68,0.64 2.52,0.27 5.08,0.55 7.59,0.91 1.28,0.18 2.56,0.35 3.84,0.55 13.26,2.1 26.11,5.32 38.31,10.26 0.82,0.35 1.59,0.71 2.34,1.1 0.57,0.29 0.77,0.62 0.66,0.93l0.02 -0.05z"/>
     <path class="fil1" d="M1272.68 613.59c-1.81,-2.47 -3.75,-4.72 -5.89,-6.89 -1.08,-1.08 -2.18,-2.12 -3.33,-3.11 -1.13,-1.02 -2.34,-1.94 -3.58,-2.87 -4.9,-3.66 -10.42,-6.75 -16.4,-9.47 -0.71,-0.31 -1.39,-0.57 -2.12,-0.86 -3.53,-1.41 -7.22,-2.49 -10.99,-3.44 -1.48,-0.38 -2.96,-0.75 -4.46,-1.17 -1.79,-0.44 -3.6,-0.86 -5.39,-1.28 -4.08,-0.93 -8.21,-1.74 -12.34,-2.58 -1.37,-0.27 -2.76,-0.53 -4.13,-0.82 -0.4,-0.07 -0.93,0 -1.39,0.18 -0.31,0.09 -0.64,0.24 -0.86,0.4 -0.11,0.07 -0.18,0.15 -0.27,0.24 -0.09,0.07 -0.2,0.15 -0.27,0.2 -1.08,1.02 -1.54,2.38 -1.83,3.71 -0.86,4.15 -0.75,8.28 -0.18,12.38 0.4,3.2 0.46,6.33 -0.46,9.47 -0.11,0.35 -0.44,0.64 -0.66,0.99 -0.29,-0.2 -0.66,-0.4 -0.93,-0.66 -2.23,-2.12 -4.61,-4.13 -7.13,-5.98 -1.26,-0.93 -2.56,-1.83 -3.84,-2.67 -0.77,-0.55 -1.59,-1.02 -2.38,-1.46 -0.55,-0.38 -1.13,-0.75 -1.72,-1.08l-0.02 0c0,0 -0.2,-0.11 -0.29,-0.18 -0.71,-0.4 -1.21,-0.4 -1.65,0.24 -0.11,0.18 -0.24,0.38 -0.35,0.57 -0.73,1.1 -1.5,2.23 -2.23,3.33 -0.73,1.1 -1.39,2.21 -1.94,3.33 -0.4,0.86 -0.75,1.72 -0.99,2.65 -1.26,4.46 -2.69,8.87 -3.97,13.35 -0.15,0.55 -0.38,0.99 -0.75,1.39 -0.49,0.53 -1.13,0.86 -2.12,0.99 -0.11,0.02 -0.27,0.02 -0.4,0.07 -1.59,0.18 -3.13,0.38 -4.68,0.62 -4.26,0.62 -8.43,1.39 -12.62,2.32 -0.62,0.11 -1.21,0.24 -1.85,0.38 -0.64,0.15 -1.3,0.29 -2.01,0.46 -1.13,0.27 -2.32,0.55 -3.44,0.86 -0.09,0 -0.2,0.02 -0.29,0.07 -1.04,0.27 -2.12,0.53 -3.16,0.77 -0.64,0.18 -1.26,0.31 -1.88,0.46 -1.19,0.31 -2.38,0.64 -3.58,0.95l5.28 2.47c1.26,-0.18 2.47,-0.35 3.71,-0.49 0.55,-0.07 1.1,-0.15 1.63,-0.2 0.53,-0.07 1.02,-0.11 1.48,-0.18 0.2,-0.02 0.46,-0.07 0.66,-0.09 10.22,-1.13 20.41,-1.39 30.72,-1.1 6.09,0.18 12.12,0.44 18.16,0.82l0.07 0c3.99,0.27 8.03,0.55 12.03,0.91 2.03,0.2 4.04,0.38 6.02,0.57 3.99,0.4 8.03,0.93 12.01,1.48 3.71,0.53 7.46,1.17 11.08,1.96 1.94,0.4 3.86,0.91 5.72,1.41 0.77,0.2 1.57,0.44 2.34,0.71 0.91,0.29 1.77,0.62 2.65,0.91 2.32,0.82 4.59,1.77 6.8,2.85 0.49,0.24 0.99,0.49 1.46,0.75 0.99,0.49 1.94,0.95 2.87,1.48 0.95,0.55 1.83,1.13 2.67,1.74 0.44,0.35 0.82,0.71 1.17,1.04 0.75,0.71 1.39,1.5 1.92,2.38 1.59,2.6 3.16,5.32 3.86,8.12 1.02,4.06 1.26,8.28 1.83,12.43 0.11,0.75 0.29,1.5 0.44,2.56 0.29,-0.2 0.55,-0.35 0.73,-0.49 0.18,-0.15 0.31,-0.24 0.4,-0.35 1.28,-1.46 2.67,-2.8 3.77,-4.37 0.82,-1.17 1.54,-2.34 2.18,-3.58 0.93,-1.83 1.65,-3.71 2.27,-5.63 0.55,-1.92 1.04,-3.86 1.41,-5.83 2.58,-13.55 0,-26.37 -8.56,-38.14l-0.02 -0.02zm-54.64 -11.61c0,0.15 -0.02,0.31 -0.09,0.46 -0.02,0.15 -0.09,0.31 -0.15,0.53 -0.2,0.66 -0.62,1.37 -1.08,2.12 -0.11,0.15 -0.2,0.29 -0.31,0.44 -0.2,0.31 -0.44,0.62 -0.71,0.91 -0.46,0.64 -1.04,1.26 -1.65,1.85 -0.53,0.53 -1.02,1.02 -1.59,1.5 -0.55,0.46 -1.17,0.99 -1.77,1.46 -0.29,0.24 -0.62,0.46 -0.93,0.71 -1.28,0.95 -2.65,1.85 -3.97,2.69 -0.71,0.4 -1.39,0.82 -2.12,1.17 -1.79,0.95 -3.58,1.74 -5.32,2.32 -2.3,0.77 -4.44,1.19 -6.27,1.1l-0.07 0c1.19,-0.71 2.43,-1.39 3.66,-2.1 3.62,-2.03 7.13,-3.99 10.39,-6.29 4.26,-3.07 7.95,-6.75 11.92,-10.17 0.11,0.44 0.15,0.86 0.02,1.32l0.02 -0.02z"/>
    </g>
    <g>
     <g>
      <path class="fil0" d="M1909.21 1274.62c-441.31,-185.81 -691.01,-49.9 -802.06,44.6 14.92,-19.27 29.31,-36.3 43.61,-51.53 2.94,-3.2 5.94,-6.42 9.05,-9.58 8.14,-8.41 16.86,-16.77 26.29,-25.25l-0 0c2.52,-2.3 5.08,-4.57 7.72,-6.86 9.67,-8.61 20.26,-17.41 32.29,-26.97 12.01,-8.72 26.11,-18.78 40.34,-28.51 139.41,-49.41 338.6,-63.67 615.42,45.66 13.04,5.12 28.98,20.81 35.62,34.96l3.69 7.72c6.8,14.37 1.39,21.34 -11.94,15.74l-0.02 0.02z"/>
      <path class="fil0" d="M980.08 1319.22c-111.08,-94.5 -360.77,-230.41 -802.08,-44.6 -13.33,5.63 -18.74,-1.37 -11.92,-15.74l3.69 -7.72c6.64,-14.15 22.58,-29.84 35.6,-34.96 276.84,-109.33 476.02,-95.08 615.42,-45.66 14.24,9.73 28.34,19.8 40.37,28.51 12.01,9.53 22.62,18.36 32.29,26.97 2.63,2.3 5.21,4.57 7.72,6.84l0 0c9.42,8.5 18.12,16.86 26.29,25.27 3.09,3.16 6.09,6.38 9.03,9.58 14.32,15.21 28.71,32.27 43.63,51.53l-0.02 -0.02z"/>
     </g>
     <path class="fil0" d="M1894.78 1047.32c-3.02,-0.51 -12.87,-1.92 -22.05,-3.09 -4.92,-0.66 -10.39,-1.39 -16.57,-2.34 -28.89,-3.51 -70.2,-6.73 -118.78,-7.61 -97,-1.79 -225.53,7.17 -344.93,50.91 -30.7,10.7 -60.69,24.56 -90.02,40.01 -14.94,7.57 -28.91,17.13 -43.59,25.45 -14.21,9.73 -28.32,19.73 -42.29,29.75 -8.92,7.06 -17.74,14.26 -26.44,21.72 -2.38,2.05 -4.77,4.13 -7.13,6.22 -15.47,13.48 -30.39,27.76 -44.54,43.12 -2.05,2.18 -4.13,4.41 -6.16,6.64 -22.33,24.41 -42.95,50.96 -61.64,77.13l-2.69 4.15c-1.46,2.36 -4.15,6.38 -5.96,8.98 -1.02,1.61 -2.05,3.22 -2.96,4.99 -2.58,3.86 -5.21,7.7 -7.79,11.7 -0.82,1.3 -1.79,2.32 -2.78,2.91 -4.02,3.33 -9.09,2.25 -12.56,-2.91 -2.58,-3.99 -5.14,-7.84 -7.7,-11.7 -0.97,-1.77 -1.94,-3.38 -3.05,-4.99 -1.74,-2.6 -4.44,-6.62 -5.96,-8.98 -0.82,-1.39 -1.79,-2.76 -2.69,-4.15 -18.69,-26.18 -39.31,-52.72 -61.64,-77.13 -2.05,-2.23 -4.1,-4.46 -6.16,-6.64 -16.31,-17.7 -33.66,-33.99 -51.67,-49.39 -8.65,-7.42 -17.46,-14.63 -26.37,-21.67 -14.04,-10.02 -28.12,-20.04 -42.35,-29.75 -14.61,-8.34 -28.65,-17.88 -43.59,-25.45 -29.26,-15.45 -59.28,-29.31 -89.98,-40.01 -119.44,-43.74 -247.93,-52.7 -344.91,-50.91 -48.58,0.88 -89.98,4.1 -118.85,7.61 -6.11,0.95 -11.65,1.7 -16.57,2.34 -9.09,1.17 -18.96,2.58 -22.05,3.09 -3.02,0.6 7.99,-17.46 24.14,-39.77l124.67 -171.48c13.48,-18.52 39.31,-30.7 57.54,-26.81 10.48,2.21 21.56,4.61 33.08,7.37 88.7,21.39 206.86,61.53 316.41,135.18 28.78,18.94 56.9,40.67 84.15,64.09 14.17,11.63 27.26,25.56 40.87,37.92 1.63,1.74 3.27,3.46 4.9,5.21 11.52,12.23 22.93,24.48 34.23,36.88 25.42,30.04 49.79,61.55 71.46,94.97 12.82,19.69 24.85,39.97 36.04,60.4 1.41,2.56 2.87,4.83 4.44,6.86 11.67,15.43 26.79,15.43 38.51,0 1.54,-2.03 3.05,-4.3 4.46,-6.86 11.17,-20.41 23.22,-40.7 35.97,-60.4 21.67,-33.39 46.04,-64.91 71.46,-94.97 11.37,-12.38 22.67,-24.59 34.21,-36.81 1.65,-1.77 3.33,-3.53 5.01,-5.3 13.59,-12.36 26.68,-26.29 40.85,-37.92 27.19,-23.44 55.39,-45.16 84.15,-64.09 109.49,-73.62 227.65,-113.79 316.41,-135.18 11.48,-2.76 22.55,-5.16 33.02,-7.37 18.32,-3.88 44.07,8.3 57.54,26.81l124.74 171.48c16.18,22.31 27.1,40.37 24.08,39.77l0.05 0.02z"/>
    </g>
    <path class="fil0" d="M1201.63 942.78l-13.99 106.2c-9.03,9.6 -18.49,19.84 -29.46,31.74l-0.29 0.35 -0.31 0.33c-29.02,34.3 -52.94,66.12 -73.16,97.24 -12.84,19.86 -25.25,40.67 -36.83,61.84 -0.79,1.46 -1.68,2.83 -2.58,3.97 -0.53,0.71 -1.02,1.28 -1.43,1.72 -0.4,-0.42 -0.84,-0.95 -1.32,-1.59 -0.93,-1.21 -1.79,-2.58 -2.67,-4.17 -11.76,-21.5 -24.19,-42.31 -36.86,-61.8 -20.19,-31.1 -44.12,-62.9 -73.14,-97.22l-0.27 -0.31 -0.27 -0.29c-8.7,-9.56 -17.94,-19.58 -29.53,-31.89l-13.97 -106.13 316.08 -0z"/>
    <path class="fil0" d="M1201.63 942.78l-13.99 106.2c-9.03,9.6 -18.49,19.84 -29.46,31.74l-0.29 0.35 -0.31 0.33c-29.02,34.3 -52.94,66.12 -73.16,97.24 -12.84,19.86 -25.25,40.67 -36.83,61.84 -0.79,1.46 -1.68,2.83 -2.58,3.97 -0.53,0.71 -1.02,1.28 -1.43,1.72 -0.4,-0.42 -0.84,-0.95 -1.32,-1.59 -0.93,-1.21 -1.79,-2.58 -2.67,-4.17 -11.76,-21.5 -24.19,-42.31 -36.86,-61.8 -20.19,-31.1 -44.12,-62.9 -73.14,-97.22l-0.27 -0.31 -0.27 -0.29c-8.7,-9.56 -17.94,-19.58 -29.53,-31.89l-13.97 -106.13 316.08 -0z"/>
   </g>
   <path class="fil0" d="M1043.62 2087.23c-140.87,0 -277.55,-27.61 -406.24,-82.03 -124.28,-52.57 -235.88,-127.81 -331.71,-223.63 -95.83,-95.83 -171.06,-207.43 -223.63,-331.71 -54.42,-128.69 -82.03,-265.37 -82.03,-406.24 0,-140.87 27.61,-277.55 82.03,-406.24 52.57,-124.28 127.81,-235.88 223.63,-331.71 95.83,-95.83 207.43,-171.06 331.71,-223.63 128.69,-54.42 265.37,-82.03 406.24,-82.03 140.87,0 277.55,27.61 406.24,82.03 124.28,52.57 235.88,127.81 331.71,223.63 95.83,95.83 171.06,207.43 223.63,331.71 54.42,128.69 82.03,265.37 82.03,406.24 0,140.87 -27.61,277.55 -82.03,406.24 -52.57,124.28 -127.81,235.88 -223.63,331.71 -95.83,95.83 -207.43,171.06 -331.71,223.63 -128.69,54.42 -265.37,82.03 -406.24,82.03zm0 -1994.45c-524.29,0 -950.86,426.54 -950.86,950.86 0,524.31 426.54,950.85 950.86,950.85 524.31,0 950.85,-426.54 950.85,-950.85 0,-524.31 -426.54,-950.86 -950.85,-950.86z"/>
  </g>
 </g>
</svg>
